<svg xmlns="http://www.w3.org/2000/svg" xmlns:xlink="http://www.w3.org/1999/xlink"><defs><symbol viewBox="0 0 24 24" id="icon-arrow-down-dotted"><path fill="currentColor" d="M10.525 18.964v-8.24c0-.809.666-1.475 1.475-1.475s1.475.666 1.475 1.475v8.24l4.5-4.499a1.48 1.48 0 012.085 0 1.482 1.482 0 010 2.086l-7.017 7.017a1.45 1.45 0 01-.447.305 1.456 1.456 0 01-1.192 0 1.45 1.45 0 01-.447-.305L3.94 16.55a1.482 1.482 0 010-2.086 1.48 1.48 0 012.085 0l4.5 4.5zM12 5.11a1.476 1.476 0 11-.001 2.951A1.476 1.476 0 0112 5.11zM12 0a1.476 1.476 0 010 2.95A1.476 1.476 0 0112 0z" /></symbol><symbol viewBox="0 0 24 24" id="icon-arrow-down-medium"><path fill="currentColor" d="M10.33 18V1.96a1.67 1.67 0 013.34 0V18l7.47-7.47a1.68 1.68 0 012.37 2.37L13.18 23.22a1.68 1.68 0 01-1.14.49H12 12h-.04a1.67 1.67 0 01-1.11-.46h-.01v-.01h-.01v-.01h-.01L.49 12.9a1.68 1.68 0 012.37-2.37L10.33 18z" /></symbol><symbol viewBox="0 0 24 24" id="icon-arrow-left-big"><path fill="currentColor" d="M.35 12.85a1.2 1.2 0 010-1.7L11.15.35a1.2 1.2 0 111.7 1.7L4.1 10.8h18.7a1.2 1.2 0 010 2.4H4.1l8.75 8.75a1.2 1.2 0 11-1.7 1.7L.35 12.85z" /></symbol><symbol viewBox="0 0 24 24" id="icon-arrow-left-small"><path fill="currentColor" d="M.693 12.792c-.1-.24-.155-.502-.157-.78v-.025a2.064 2.064 0 01.205-.887l.01-.023c.09-.182.209-.353.354-.507l.042-.044L11.062.611a2.082 2.082 0 012.947 0 2.082 2.082 0 010 2.948L7.652 9.916H21.38a2.077 2.077 0 011.51.646 2.09 2.09 0 01.491 2.022 2.087 2.087 0 01-2 1.5H7.651l6.357 6.357c.186.188.336.403.44.644a2.096 2.096 0 01-.517 2.379 2.069 2.069 0 01-1.346.535 2.107 2.107 0 01-.786-.133 2.104 2.104 0 01-.738-.477l-9.915-9.915-.01-.009a2.1 2.1 0 01-.444-.673z" /></symbol><symbol viewBox="0 0 24 24" id="icon-arrow-right-big">
  <path fill="currentColor" d="M19.9 10.8l-8.75-8.75a1.2 1.2 0 011.7-1.7l10.8 10.8.08.09a1.2 1.2 0 01-.08 1.6l-10.8 10.8a1.2 1.2 0 01-1.7-1.69l8.75-8.75H1.2A1.2 1.2 0 010 12c0-.66.54-1.2 1.2-1.2h18.7z" />
</symbol><symbol viewBox="0 0 24 24" id="icon-arrow-right-medium"><path fill="currentColor" d="M18 10.33l-7.47-7.47A1.68 1.68 0 0112.9.49l10.32 10.33a1.68 1.68 0 01.49 1.14v.08a1.67 1.67 0 01-.46 1.11v.01h-.01v.01h-.01v.01L12.9 23.51a1.68 1.68 0 01-2.37-2.37L18 13.67H1.96a1.67 1.67 0 010-3.34H18z" /></symbol><symbol viewBox="0 0 24 24" id="icon-arrow-right-small"><path fill="currentColor" d="M23.307 11.208c.1.24.155.502.157.78v.025a2.064 2.064 0 01-.16.79l-.045.097-.01.023c-.09.182-.209.353-.354.507l-.042.044-9.915 9.915a2.082 2.082 0 01-2.947 0 2.082 2.082 0 010-2.948l6.357-6.357H2.62a2.077 2.077 0 01-1.51-.646 2.09 2.09 0 01-.491-2.022 2.087 2.087 0 012-1.5h13.728L9.99 3.559a2.094 2.094 0 01-.44-.644 2.096 2.096 0 01.517-2.379 2.069 2.069 0 011.346-.535c.267-.007.536.04.786.133.277.104.527.269.738.477l9.915 9.915.01.009c.196.2.344.43.444.673z" /></symbol><symbol viewBox="0 0 24 24" id="icon-arrow-up-big"><path fill="currentColor" d="M11.149.351a1.2 1.2 0 011.7 0l10.8 10.8c.224.225.351.531.351.85 0 .66-.543 1.202-1.202 1.202-.319 0-.625-.127-.85-.352l-8.75-8.75v18.7c0 .658-.542 1.2-1.2 1.2-.658 0-1.2-.542-1.2-1.2v-18.7l-8.75 8.75a1.203 1.203 0 01-.85.352 1.208 1.208 0 01-1.202-1.202c0-.319.127-.625.352-.85l10.8-10.8z" /></symbol><symbol viewBox="0 0 24 24" id="icon-arrow-up-medium"><path fill="currentColor" d="M12 .29h.04a1.61 1.61 0 011.14.49L23.51 11.1a1.68 1.68 0 01-2.37 2.37L13.67 6v16.04a1.67 1.67 0 01-3.34 0V6l-7.47 7.47A1.68 1.68 0 01.49 11.1L10.82.78V.76h.01V.75h.01V.74a1.7 1.7 0 011.11-.46h.05z" /></symbol><symbol viewBox="0 0 24 24" id="icon-checkbox">
  <path d="M21.6 24H2.4C1.1 24 0 22.9 0 21.6V2.4C0 1.1 1 0 2.4 0h19.2C22.9 0 24 1 24 2.4v19.2c0 1.3-1.1 2.4-2.4 2.4zM2.4 2.4v19.2h19.2V2.4H2.4z" fill="currentColor" fill-rule="nonzero" />
</symbol><symbol viewBox="0 0 24 24" id="icon-checkbox-checked">
  <path d="M21.6 24H2.4C1.1 24 0 22.9 0 21.6V2.4C0 1.1 1 0 2.4 0h19.2C22.9 0 24 1 24 2.4v19.2c0 1.3-1.1 2.4-2.4 2.4zM2.4 2.4v19.2h19.2V2.4H2.4zm12 13.2H9.6c-.7 0-1.2-.5-1.2-1.2V9.6c0-.7.5-1.2 1.2-1.2h4.8c.7 0 1.2.5 1.2 1.2v4.8c0 .7-.5 1.2-1.2 1.2z" fill="currentColor" fill-rule="nonzero" />
</symbol><symbol viewBox="0 0 24 24" id="icon-chevron-down-medium"><path fill="currentColor" d="M12 14.8l9.14-9.15a1.68 1.68 0 012.37 2.37L13.18 18.35a1.67 1.67 0 01-2.36 0L.49 8.02a1.68 1.68 0 012.37-2.37L12 14.8z" /></symbol><symbol viewBox="0 0 24 24" id="icon-chevron-down-small"><path fill="currentColor" d="M21.71 4.75c1.82.14 2.93 2.5 1.7 3.98-3.79 4.08-8.93 9.64-10.33 10.35-2.96 1.49-7.84-5.6-12.4-10.25-1.63-1.77.94-5.77 3.43-3.36L12 13.5l7.89-8.04c.88-.86.81-.74 1.82-.72z" /></symbol><symbol viewBox="0 0 24 24" id="icon-chevron-up-medium"><path fill="currentColor" d="M12 5.16c.43 0 .86.17 1.18.5l10.33 10.32a1.68 1.68 0 01-2.37 2.37L12 9.2l-9.14 9.15a1.68 1.68 0 01-2.37-2.37L10.82 5.65A1.67 1.67 0 0112 5.16z" /></symbol><symbol viewBox="0 0 24 24" id="icon-chevron-up-small"><path d="M2.388 19.25c-1.82-.14-2.93-2.5-1.7-3.98 3.79-4.08 8.93-9.64 10.33-10.35 2.96-1.49 7.84 5.6 12.4 10.25 1.63 1.77-.94 5.77-3.43 3.36l-7.89-8.03-7.89 8.04c-.88.86-.81.74-1.82.72v-.01z" fill="currentColor" /></symbol><symbol viewBox="0 0 24 24" id="icon-close"><path fill="currentColor" d="M13.7 12l9.16 9.16c.56.57.64 1.4.17 1.87-.47.47-1.3.4-1.87-.17L12 13.7l-9.16 9.16c-.57.56-1.4.64-1.87.17-.47-.47-.4-1.3.17-1.87L10.3 12 1.14 2.84C.58 2.27.5 1.44.97.97c.47-.47 1.3-.4 1.87.17L12 10.3l9.16-9.16c.57-.56 1.4-.64 1.87-.17.47.47.4 1.3-.17 1.87L13.7 12z" /></symbol><symbol viewBox="0 0 24 24" id="icon-close-big"><path fill="currentColor" d="M21.232 23.543L12 14.31l-9.233 9.233A1.631 1.631 0 01.46 21.237l9.232-9.234L.458 2.768A1.634 1.634 0 010 1.633C0 .74.737.001 1.632.001c.422 0 .83.165 1.134.459l9.232 9.234L21.234.458A1.633 1.633 0 0122.368 0 1.64 1.64 0 0124 1.632c0 .423-.164.83-.458 1.134L14.309 12l9.233 9.234c.294.303.458.711.458 1.134A1.64 1.64 0 0122.368 24c-.422 0-.83-.164-1.134-.458l-.002.001z" /></symbol><symbol viewBox="0 0 24 24" id="icon-compare-slider"><path fill="currentColor" d="M17.194 12.931H6.842c-.475 0-.863-.345-.863-.862 0-.432.388-.863.863-.863h10.352c.474 0 .862.431.862.863 0 .517-.388.862-.862.862zM15.45 21.3l-2.441 2.416a1.038 1.038 0 01-1.372 0l-2.441-2.416a1.015 1.015 0 01-.25-.604c0-.517.388-.862.862-.862.225 0 .449.086.613.258l1.898 1.898 1.906-1.898a.854.854 0 011.225 0c.164.173.25.345.25.604a.964.964 0 01-.25.604zm0-17.426a.842.842 0 01-.612.26.828.828 0 01-.613-.26L12.32 1.976l-1.907 1.897a.84.84 0 01-.63.26c-.474 0-.862-.346-.862-.863 0-.26.103-.432.276-.604L11.638.25a1.038 1.038 0 011.372 0l2.441 2.416c.155.172.25.345.25.604 0 .258-.095.43-.25.603z" /></symbol><symbol viewBox="0 0 24 24" id="icon-download"><path d="M.48 15.826v5.91C.48 22.987 1.509 24 2.778 24h18.424c1.27 0 2.298-1.013 2.298-2.263v-5.911a1.14 1.14 0 00-1.149-1.132 1.14 1.14 0 00-1.149 1.132v5.91H2.778v-5.91a1.14 1.14 0 00-1.149-1.132A1.14 1.14 0 00.48 15.826z" /><path d="M5.219 11.706a1.153 1.153 0 010-1.616 1.119 1.119 0 011.596 0l4.045 3.456V1.143c0-.58.429-1.067.997-1.135L11.99 0c.623 0 1.128.512 1.128 1.143v12.403l4.048-3.457a1.118 1.118 0 011.49-.095l.106.095c.44.446.44 1.17 0 1.616l-5.974 5.103-.036.034c-.02.02-.043.038-.065.056l-.036.028a1.499 1.499 0 01-.184.11.82.82 0 01-.126.05l-.052.016-.073.018a1.115 1.115 0 01-.226.023h.1-.201c-.026 0-.045 0-.067-.008-.023-.008-.039-.007-.059-.01l-.073-.018c-.024-.005-.03-.016-.053-.021-.023-.006-.041-.014-.061-.022a.663.663 0 01-.067-.03l-.06-.03-.046-.027a1.132 1.132 0 01-.211-.168l.097.087a1.14 1.14 0 01-.097-.087l-5.973-5.103z" /></symbol><symbol viewBox="0 0 20 20" id="icon-external-link"><path d="M18 18H2V2h5c.549 0 1-.452 1-1 0-.549-.451-1-1-1H1C.451 0 0 .451 0 1v18c0 .548.451 1 1 1h18c.549 0 1-.452 1-1v-6c0-.549-.451-1-1-1-.549 0-1 .451-1 1v5zm1.955-16.958l.001 6.733c0 .548-.451 1-1 1-.549 0-1-.452-1-1V3.462l-5.364 5.364c-.357.356-.93.39-1.326.078l-.088-.078a1.004 1.004 0 010-1.414l5.364-5.364h-4.314c-.502 0-.929-.379-.992-.876l-.008-.125c0-.549.451-1 1-1h6.728a1 1 0 01.702.287l.069.07c.016.015.028.027.037.046.009.02.021.03.032.046s.02.033.03.05l.051.101c.008.016.015.037.023.058l.032.108c.004.017.005.054.009.074a.657.657 0 01.009.064l.005.091zm-.005-.09l-.002-.03a.966.966 0 01.002.03z" /></symbol><symbol viewBox="0 0 24 24" id="icon-grid-decrease"><path fill="currentColor" d="M24 2.4A2.4 2.4 0 0021.6 0H2.4A2.4 2.4 0 000 2.4v19.2A2.4 2.4 0 002.4 24h19.2a2.4 2.4 0 002.4-2.4V2.4zM2.4 21.6V2.4h19.2v19.2H2.4z" /></symbol><symbol viewBox="0 0 24 24" id="icon-grid-increase"><path fill="currentColor" d="M9.6 13.2a1.2 1.2 0 011.2 1.2v8.4A1.2 1.2 0 019.6 24H1.2A1.2 1.2 0 010 22.8v-8.4a1.2 1.2 0 011.2-1.2h8.4zm13.2 0a1.2 1.2 0 011.2 1.2v8.4a1.2 1.2 0 01-1.2 1.2h-8.4a1.2 1.2 0 01-1.2-1.2v-8.4a1.2 1.2 0 011.2-1.2h8.4zM8.4 21.6v-6h-6v6h6zm13.2 0v-6h-6v6h6zM9.6 0a1.2 1.2 0 011.2 1.2v8.4a1.2 1.2 0 01-1.2 1.2H1.2A1.2 1.2 0 010 9.6V1.2A1.2 1.2 0 011.2 0h8.4zm13.2 0A1.2 1.2 0 0124 1.2v8.4a1.2 1.2 0 01-1.2 1.2h-8.4a1.2 1.2 0 01-1.2-1.2V1.2A1.2 1.2 0 0114.4 0h8.4zM8.4 8.4v-6h-6v6h6zm13.2 0v-6h-6v6h6z" /></symbol><symbol viewBox="0 0 24 24" id="icon-info"><path fill="currentColor" d="M12 0c6.583 0 12 5.417 12 12s-5.417 12-12 12S0 18.583 0 12 5.417 0 12 0zm0 2.4c-5.267 0-9.6 4.333-9.6 9.6 0 5.267 4.333 9.6 9.6 9.6 5.267 0 9.6-4.333 9.6-9.6 0-5.267-4.333-9.6-9.6-9.6zm0 7.2c.659 0 1.2.541 1.2 1.2v6c0 .659-.541 1.2-1.2 1.2-.659 0-1.2-.541-1.2-1.2v-6c0-.659.541-1.2 1.2-1.2zM12 6c.659 0 1.2.541 1.2 1.2 0 .659-.541 1.2-1.2 1.2-.659 0-1.2-.541-1.2-1.2 0-.659.541-1.2 1.2-1.2z" /></symbol><symbol viewBox="0 0 24 24" id="icon-menu"><path fill="currentColor" d="M22.8 2.4H1.2a1.2 1.2 0 010-2.4h21.6a1.2 1.2 0 010 2.4zM1.2 13.2h9.6a1.2 1.2 0 000-2.4H1.2a1.2 1.2 0 000 2.4zM24 22.8c0 .66-.54 1.2-1.2 1.2H1.2a1.2 1.2 0 010-2.4h21.6c.66 0 1.2.54 1.2 1.2z" /></symbol><symbol viewBox="0 0 24 24" id="icon-minus"><path fill="currentColor" d="M22.286 10.286H1.714a1.715 1.715 0 000 3.428h20.572a1.715 1.715 0 000-3.428z" /></symbol><symbol viewBox="0 0 24 24" id="icon-minus-big"><path fill="currentColor" d="M23.33 11.25c.72.13.88 1.35-.08 1.4H.76c-.74-.04-1.06-1.34 0-1.4H23.33z" /></symbol><symbol fill-rule="evenodd" stroke-linejoin="round" stroke-miterlimit="2" viewBox="0 0 24 24" id="icon-on-view"><defs></defs><path d="M12 19.468c4.229 0 8.095-2.235 11.524-6.83L24 12l-.476-.638C20.095 6.767 16.23 4.532 12 4.532c-4.23 0-8.096 2.235-11.524 6.83L0 12l.476.638c3.428 4.595 7.295 6.83 11.524 6.83zM21.32 12C18.512 8.478 15.426 6.665 12 6.665S5.488 8.478 2.678 12c2.81 3.522 5.896 5.334 9.322 5.334 3.426 0 6.512-1.812 9.321-5.334zM12 9.866a2.135 2.135 0 11-.002 4.27A2.135 2.135 0 0112 9.865z" /></symbol><symbol viewBox="0 0 24 24" id="icon-play"><path d="M24 12a12 12 0 10-24 0 12 12 0 0024 0z" /><path d="M10.7 8.8a.6.6 0 01.3 0l4.1 2.7c.3.2.3.7 0 1L11 15c-.3.2-.8 0-.9-.4V9.4a.6.6 0 01.6-.6zm0 .4a.2.2 0 00-.2.2v5.2c0 .2.2.2.3.2a101.4 101.4 0 004.1-2.6.2.2 0 000-.4l-4.1-2.6a.2.2 0 00-.1 0z" fill="#fff" /></symbol><symbol viewBox="0 0 24 24" id="icon-plus"><path fill="currentColor" d="M10.286 10.286V1.714a1.715 1.715 0 013.428 0v8.572h8.572a1.715 1.715 0 010 3.428h-8.572v8.572a1.715 1.715 0 01-3.428 0v-8.572H1.714a1.715 1.715 0 010-3.428h8.572z" /></symbol><symbol viewBox="0 0 24 24" id="icon-plus-big"><path fill="currentColor" d="M11.3 11.3V.78a.71.71 0 01.78-.7c.36.06.6.33.63.7V11.3h10.62c.7.12.9 1.35-.08 1.4H12.7v10.55c-.05.73-1.35 1.05-1.41 0V12.7H.76c-.74-.04-1.06-1.34 0-1.4H11.3z" /></symbol><symbol viewBox="0 0 24 24" id="icon-scale">
  <path fill="currentColor" class="cls-1" d="M15.9 1h-8a1 1 0 000 2h7v3h-4a1 1 0 000 2h4v3h-7a1 1 0 000 2h7v3h-4a1 1 0 000 2h4v3h-7a1 1 0 100 2h8a1 1 0 001-1V2a1 1 0 00-1-1z" />
</symbol><symbol fill-rule="evenodd" viewBox="0 0 24 24" id="icon-search"><path fill="currentColor" d="M13.6813 0C7.9825 0 3.3625 4.62 3.3625 10.3188c0 2.4984.888 4.7892 2.3652 6.5748L.4405 21.876c-.4824.4536-.5052 1.2132-.0516 1.6956.4548.4824 1.2144.5052 1.6968.0504l5.3784-5.0664c1.7292 1.3068 3.882 2.082 6.2172 2.082 5.6988 0 10.3188-4.62 10.3188-10.3188C24.0001 4.62 19.3801 0 13.6813 0zM8.2249 16.0584c.012.0108.024.0216.036.0336 1.4172 1.3308 3.3228 2.1456 5.4204 2.1456 4.374 0 7.9188-3.5448 7.9188-7.9188 0-4.374-3.5448-7.9188-7.9188-7.9188-4.374 0-7.9188 3.5448-7.9188 7.9188 0 2.2596.9456 4.2972 2.4624 5.7396z" /></symbol><symbol viewBox="0 0 24 24" id="icon-size-down"><path fill="currentColor" d="M6.78 24c-.478 0-.956-.43-.956-.956v-4.89H.952c-.573 0-.955-.43-.955-.956s.382-.955.955-.955h5.732c.573.047 1.051.506 1.051 1.07v5.731a.917.917 0 01-.287.679.893.893 0 01-.668.277zm9.744-16.575c-.191-.181-.287-.449-.287-.735V.958c0-.249.096-.488.287-.67.19-.18.382-.286.669-.286.477 0 .955.43.955.956v4.9h4.872c.573 0 .955.43.955.956 0 .525-.382.955-.955.955h-5.732a1.096 1.096 0 01-.764-.344z" /></symbol><symbol viewBox="0 0 24 24" id="icon-size-up"><path fill="currentColor" d="M1.48 24.022c-.377 0-.753-.163-1.004-.452-.251-.238-.377-.59-.377-.966v-7.53c0-.678.502-1.255 1.255-1.255.628 0 1.255.577 1.255 1.255v6.438h6.4c.754 0 1.256.565 1.256 1.255s-.502 1.255-1.255 1.255H1.48zm20.08-15.06V2.524h-6.4c-.754 0-1.256-.565-1.256-1.255S14.406.014 15.16.014h7.53c.753.062 1.381.665 1.381 1.405v7.53c0 .34-.125.653-.376.891-.252.226-.503.364-.879.364-.628 0-1.255-.564-1.255-1.255v.013z" /></symbol><symbol viewBox="0 0 24 24" id="icon-union"><path fill="currentColor" d="M0 12C0 5.41 5.42 0 12 0s12 5.41 12 12-5.42 12-12 12S0 18.59 0 12zm12 9.6a9.59 9.59 0 007.58-15.5L6.11 19.59A9.6 9.6 0 0012 21.6zM2.4 12c0 2.14.7 4.2 2.02 5.9L17.89 4.41A9.59 9.59 0 002.4 12z" /></symbol><symbol viewBox="0 0 24 24" id="icon-zoom"><path fill="currentColor" d="M.346 23.61a1.098 1.098 0 01-.361-.819c0-.337.12-.65.36-.88l5.294-5c-1.564-1.855-2.406-4.192-2.286-6.602C3.353 4.623 7.925-.052 13.7-.052c5.654 0 10.345 4.675 10.345 10.361 0 5.687-4.691 10.362-10.345 10.362a10.32 10.32 0 01-6.256-2.096L2.03 23.659c-.24.217-.481.337-.842.337-.36 0-.601-.144-.842-.385zm5.293-13.3c0 4.36 3.609 7.951 7.94 7.951 4.45 0 7.939-3.59 7.939-7.952 0-4.361-3.489-7.952-7.94-7.952-4.33 0-7.94 3.59-7.94 7.952zm7.218 2.59v-1.807h-1.805c-.481 0-.842-.41-.842-.904v-.012c0-.494.361-.892.842-.904h1.805V7.466c.12-.494.48-.892.962-.904.481.012.842.41.842.904v1.807h1.804c.602 0 .963.41.963.904 0 .506-.361.916-.963.916h-1.804V12.9c.12.494-.36.903-.842.903-.481 0-.962-.41-.842-.903h-.12z" /></symbol></defs></svg>